<?xml version="1.0" encoding="utf-8"?>
<!-- Generator: Adobe Illustrator 16.2.1, SVG Export Plug-In . SVG Version: 6.00 Build 0)  -->
<!DOCTYPE svg PUBLIC "-//W3C//DTD SVG 1.1//EN" "http://www.w3.org/Graphics/SVG/1.1/DTD/svg11.dtd">
<svg version="1.1" id="Layer_1" xmlns="http://www.w3.org/2000/svg" xmlns:xlink="http://www.w3.org/1999/xlink" x="0px" y="0px"
	 width="32px" height="864px" viewBox="0 0 32 864" enable-background="new 0 0 32 864" xml:space="preserve">
<g>
	<path fill="none" stroke="#000000" stroke-width="1.5" stroke-miterlimit="10" d="M21.609,241.312l-9.354-5.399
		c-0.45-0.262-0.821-0.047-0.821,0.474v10.804c0,0.519,0.371,0.729,0.821,0.47l9.354-5.398
		C22.062,241.999,22.062,241.572,21.609,241.312z"/>
</g>
<g>
	<path d="M27.889,18.73l-1.687-1.468c-0.249-0.218-0.459-0.665-0.466-0.997l-0.023-1.139c-0.008-0.329,0.186-0.785,0.426-1.012
		l1.568-1.467c0.241-0.227,0.343-0.664,0.227-0.973L27.16,9.955c-0.154-0.291-0.553-0.514-0.883-0.489L24.032,9.62
		c-0.33,0.022-0.796-0.146-1.034-0.375l-0.669-0.641c-0.239-0.229-0.425-0.687-0.414-1.019l0.073-2.191
		c0.012-0.33-0.227-0.715-0.526-0.853L19.643,3.84c-0.312-0.101-0.75,0.021-0.968,0.271l-1.464,1.68
		c-0.218,0.25-0.666,0.459-0.997,0.467l-0.842,0.018c-0.331,0.006-0.786-0.186-1.012-0.427l-1.529-1.635
		c-0.227-0.241-0.666-0.348-0.978-0.235l-1.792,0.768c-0.295,0.147-0.518,0.54-0.496,0.87l0.149,2.171
		c0.023,0.33-0.146,0.796-0.375,1.034L8.693,9.498C8.465,9.737,8.007,9.923,7.676,9.913L5.418,9.838
		c-0.33-0.012-0.719,0.223-0.862,0.521L3.845,12.1c-0.106,0.314,0.011,0.747,0.26,0.965l1.606,1.399
		c0.249,0.217,0.459,0.666,0.466,0.995L6.2,16.612c0.008,0.329-0.185,0.784-0.426,1.011l-1.637,1.532
		c-0.241,0.226-0.349,0.665-0.238,0.977L4.59,21.78c0.146,0.298,0.535,0.521,0.865,0.498l2.106-0.145
		c0.33-0.022,0.795,0.145,1.034,0.374l0.984,0.943c0.238,0.229,0.425,0.687,0.414,1.019L9.92,26.664
		c-0.012,0.331,0.225,0.716,0.524,0.855l1.596,0.637c0.314,0.104,0.748-0.014,0.966-0.263l1.403-1.611
		c0.218-0.25,0.666-0.46,0.997-0.467l1.447-0.029c0.33-0.008,0.785,0.185,1.021,0.426l1.469,1.57
		c0.229,0.243,0.664,0.344,0.979,0.227l1.568-0.695c0.293-0.15,0.521-0.546,0.484-0.877l-0.146-2.18
		c-0.021-0.329,0.146-0.796,0.375-1.034l0.938-0.979c0.229-0.238,0.688-0.424,1.021-0.413L26.68,21.9
		c0.329,0.012,0.713-0.226,0.85-0.527l0.646-1.675C28.26,19.384,28.137,18.948,27.889,18.73z M15.961,19.657
		c-2.086,0-3.777-1.691-3.777-3.776c0-2.087,1.691-3.777,3.777-3.777s3.775,1.69,3.775,3.777
		C19.736,17.966,18.047,19.657,15.961,19.657z"/>
</g>
<g id="Layer_2">
</g>
<g id="Layer_3">
</g>
<g id="Layer_4">
</g>
<g id="iWAmrb.tif">
</g>
<g>
	<g>
		<path d="M27.438,411.697H4.312v-23.396h23.127v23.396H27.438z M5.267,410.741h21.215v-21.482H5.267V410.741z"/>
	</g>
</g>
<g>
	<polygon fill="none" stroke="#000000" stroke-miterlimit="10" points="21.723,388.514 10.293,388.514 10.293,403.021 
		16.007,400.802 21.723,403.021 	"/>
</g>
<g>
	<rect x="2.461" y="429.968" transform="matrix(-0.7071 -0.7071 0.7071 -0.7071 -279.1342 745.7147)" width="24.829" height="1.4"/>
</g>
<g>
	<polygon points="5.706,427.562 5.706,421.125 12.144,421.125 	"/>
</g>
<g>
	<polygon points="26.294,435.274 26.294,441.713 19.855,441.713 	"/>
</g>
<g>
	<g>
		<g>
			<polygon points="11.787,518.676 16,514.463 20.214,518.676 			"/>
		</g>
		<g>
			<g>
				<rect x="15.104" y="515.172" width="1.296" height="22.983"/>
			</g>
			<g>
				<polygon points="20.214,537.198 16,541.412 11.786,537.198 				"/>
			</g>
		</g>
	</g>
	<g>
		<g>
			<polygon points="25.262,523.725 29.475,527.938 25.262,532.151 			"/>
		</g>
		<g>
			<g>
				<rect x="5.782" y="527.041" width="22.983" height="1.297"/>
			</g>
			<g>
				<polygon points="6.739,532.151 2.525,527.938 6.739,523.724 				"/>
			</g>
		</g>
	</g>
</g>
<g>
	<polygon points="22.544,466.527 16,473.071 9.457,466.527 	"/>
</g>
<g>
	<rect x="4.256" y="473.333" width="23.488" height="1"/>
</g>
<g>
	<rect x="14.218" y="453.5" width="3.564" height="15.332"/>
</g>
<g>
	<polygon points="9.137,492.036 16,485.173 22.863,492.036 	"/>
</g>
<g>
	<rect x="4.256" y="505.333" width="23.488" height="1"/>
</g>
<g>
	<rect x="14.218" y="489.895" width="3.564" height="15.938"/>
</g>
<g>
	<line fill="none" x1="15.832" y1="421.856" x2="16.168" y2="421.52"/>
</g>
<g>
	<path d="M16,607.508l-14.197-5.104v-25.358h28.392v25.358L16,607.508z M3.403,601.279L16,605.807l12.598-4.521V578.65H3.403
		V601.279z"/>
</g>
<g>
	<path d="M24.548,60.579c-0.138,0-0.274-0.042-0.396-0.128L16,54.528L7.848,60.45c-0.234,0.171-0.554,0.171-0.788,0
		c-0.236-0.171-0.334-0.473-0.245-0.75l3.113-9.583l-8.152-5.925c-0.235-0.171-0.333-0.472-0.244-0.75
		c0.091-0.275,0.348-0.463,0.638-0.463h10.077l3.114-9.583c0.18-0.553,1.096-0.553,1.278,0l3.114,9.583h10.074
		c0.293,0,0.551,0.187,0.64,0.463c0.09,0.278-0.014,0.58-0.248,0.75l-8.152,5.925l3.115,9.583c0.09,0.277-0.009,0.579-0.242,0.75
		C24.826,60.536,24.688,60.579,24.548,60.579z M16,53.027c0.139,0,0.278,0.042,0.395,0.128l6.876,4.996l-2.627-8.084
		c-0.09-0.276,0.008-0.58,0.244-0.75l6.873-4.996h-8.498c-0.289,0-0.55-0.187-0.639-0.463L16,35.774l-2.625,8.084
		c-0.091,0.275-0.349,0.463-0.638,0.463H4.235l6.876,4.996c0.234,0.171,0.332,0.474,0.244,0.75L8.731,58.15l6.875-4.995
		C15.722,53.069,15.861,53.027,16,53.027z"/>
</g>
<g>
	<polygon points="16,65.569 19.27,75.642 29.846,75.642 21.292,81.869 24.559,91.942 16,85.716 7.442,91.942 10.711,81.869 
		2.153,75.642 12.732,75.642 	"/>
	<path d="M24.559,92.614c-0.138,0-0.271-0.042-0.395-0.129L16,86.548l-8.163,5.938c-0.235,0.172-0.555,0.172-0.789,0
		c-0.236-0.171-0.334-0.474-0.245-0.752l3.117-9.607l-8.163-5.939c-0.236-0.171-0.334-0.474-0.245-0.752
		c0.091-0.276,0.349-0.465,0.639-0.465h10.09l3.118-9.608c0.18-0.554,1.098-0.554,1.28,0l3.117,9.608h10.088
		c0.293,0,0.553,0.188,0.641,0.465c0.093,0.279-0.014,0.581-0.248,0.752l-8.159,5.939l3.114,9.607
		c0.095,0.278-0.008,0.581-0.239,0.752C24.837,92.572,24.699,92.614,24.559,92.614z M16,85.044c0.139,0,0.278,0.042,0.396,0.128
		l6.885,5.009l-2.631-8.105c-0.09-0.277,0.01-0.581,0.246-0.752l6.881-5.009H19.27c-0.291,0-0.547-0.187-0.638-0.464L16,67.745
		l-2.629,8.105c-0.091,0.276-0.349,0.464-0.639,0.464H4.22l6.885,5.009c0.234,0.171,0.333,0.475,0.244,0.752L8.722,90.18
		l6.884-5.008C15.722,85.086,15.861,85.044,16,85.044z"/>
</g>
<path d="M31.456,134.545l-0.065-0.023c-0.396-0.129-0.793-0.262-1.188-0.392c-0.529-0.177-1.062-0.354-1.592-0.531
	c-1.229-0.411-2.5-0.835-3.762-1.233c-1.732-0.547-4.67-1.41-4.699-1.418c-0.01-0.002-0.965-0.273-1.34-0.273l-0.061,0.002
	c-0.146,0.009-0.525,0.034-0.854,0.055h-3.226c-0.257-0.017-0.648-0.035-0.934-0.035c-0.217,0-0.348,0.01-0.455,0.032
	c-0.125,0.027-0.338,0.091-0.481,0.132l-0.1,0.029c-0.075,0.02-0.4,0.112-0.731,0.208l-3.619,1.085
	c-0.322,0.094-0.846,0.262-1.162,0.365l-3.766,1.236c-0.312,0.105-0.822,0.275-1.134,0.379l-0.696,0.23
	c-0.562,0.188-1.199,0.398-1.061,1.083c0.006,0.021,0.016,0.076,0.201,0.695l1.304,4.356c0.286,0.959,0.481,1.088,0.608,1.174
	c0.092,0.058,0.262,0.17,1.057,0.232c0,0,1.566,0.121,2.652,0.212c0.115,0.009,0.19,0.015,0.241,0.019L6.4,156.139
	c-0.006,0.361,0.131,0.703,0.386,0.961c0.253,0.258,0.593,0.398,0.954,0.398h17.104c0.358,0,0.698-0.141,0.952-0.396
	c0.259-0.256,0.396-0.599,0.392-0.96l-0.191-13.866c0.087-0.057,0.207-0.113,0.252-0.123l2.634-0.217
	c0.991-0.08,1.183-0.25,1.323-0.455c0.046-0.063,0.128-0.181,0.332-0.873l1.354-4.539C32.188,135.062,31.833,134.69,31.456,134.545z
	 M29.094,140.18c-0.023,0.085-0.05,0.162-0.07,0.232c-0.082,0.008-0.176,0.019-0.27,0.029l-2.639,0.213
	c-0.469,0.039-1.645,0.524-1.631,1.437l0.195,13.91H7.904l0.194-13.909c0.011-0.725-0.546-1.344-1.264-1.413
	c0,0-0.038-0.004-0.356-0.026c-1.087-0.091-2.658-0.211-2.658-0.211c-0.088-0.007-0.168-0.016-0.238-0.023
	c-0.036-0.098-0.074-0.211-0.107-0.32l-1.292-4.322l0.579-0.19c0.314-0.105,0.827-0.275,1.137-0.38l3.762-1.236
	c0.309-0.104,0.813-0.261,1.123-0.354l3.613-1.084c0.006-0.002,0.012-0.003,0.02-0.005c0.473,1.038,1.545,2.57,3.771,2.57
	c2.253,0,3.389-1.572,3.896-2.609c0.835,0.248,2.95,0.876,4.314,1.307c1.248,0.393,2.511,0.816,3.729,1.226
	c0.53,0.177,1.062,0.354,1.599,0.53c0.228,0.076,0.455,0.15,0.681,0.227L29.094,140.18z"/>
<g>
	<path d="M16.001,693.641c-0.317,0-0.635-0.108-0.885-0.345l-9.668-8.884c-0.532-0.488-0.566-1.315-0.078-1.848
		c0.488-0.531,1.315-0.567,1.848-0.078l8.783,8.064l8.781-8.064c0.53-0.487,1.358-0.454,1.848,0.078
		c0.488,0.524,0.453,1.354-0.078,1.848l-9.665,8.884C16.637,693.525,16.318,693.641,16.001,693.641z"/>
</g>
<g>
	<g>
		<path d="M15.898,748.549c0.375,0,0.702-0.141,0.976-0.417c0.274-0.271,0.412-0.612,0.412-1.01c0-0.394-0.136-0.729-0.408-1.012
			c-0.272-0.283-0.599-0.42-0.979-0.42c-0.379,0-0.707,0.14-0.982,0.42c-0.275,0.273-0.412,0.611-0.412,1.012
			c0,0.396,0.137,0.729,0.412,1.01C15.189,748.41,15.518,748.549,15.898,748.549z M16,738.736c-7.167,0-12.979,5.811-12.979,12.979
			c0,7.167,5.812,12.979,12.979,12.979s12.979-5.812,12.979-12.979S23.167,738.736,16,738.736z M16,763.765
			c-6.654,0-12.051-5.396-12.051-12.052c0-6.654,5.396-12.051,12.051-12.051c6.654,0,12.051,5.396,12.051,12.053
			C28.051,758.369,22.654,763.765,16,763.765z M17.652,756.969c-0.131-0.062-0.231-0.156-0.303-0.284
			c-0.07-0.127-0.105-0.274-0.105-0.463v-6.181l-0.105-0.115l-3.453,0.2v0.568c0.142,0.016,0.297,0.052,0.469,0.104
			c0.172,0.062,0.3,0.114,0.385,0.186c0.113,0.079,0.207,0.188,0.281,0.324c0.076,0.145,0.113,0.304,0.113,0.479v4.529
			c0,0.188-0.029,0.346-0.091,0.463c-0.061,0.114-0.167,0.206-0.317,0.271c-0.084,0.036-0.186,0.062-0.303,0.077
			c-0.117,0.021-0.236,0.027-0.359,0.038v0.567h4.453v-0.567c-0.121-0.017-0.23-0.041-0.353-0.076
			C17.852,757.057,17.747,757.016,17.652,756.969z"/>
	</g>
	<g>
		<path d="M16.007,764.435c-7.026,0-12.743-5.717-12.743-12.736c0-7.026,5.717-12.743,12.743-12.743
			c7.026,0,12.743,5.717,12.743,12.743C28.75,758.718,23.033,764.435,16.007,764.435z M16.007,740.948
			c-5.924,0-10.743,4.812-10.743,10.743c0,5.924,4.819,10.736,10.743,10.736c5.925,0,10.743-4.812,10.743-10.736
			C26.75,745.767,21.932,740.948,16.007,740.948z"/>
	</g>
</g>
<g>
	<g>
		<path d="M25.516,730.362c-0.334,0-0.668-0.128-0.925-0.384L5.562,710.95c-0.511-0.511-0.511-1.339,0-1.854
			c0.51-0.51,1.339-0.51,1.849,0l19.03,19.029c0.511,0.511,0.511,1.339,0,1.85C26.186,730.234,25.852,730.362,25.516,730.362z"/>
	</g>
	<g>
		<path d="M6.484,730.362c-0.334,0-0.669-0.128-0.925-0.384c-0.51-0.517-0.51-1.345,0-1.854L24.59,709.1
			c0.512-0.51,1.338-0.51,1.85,0c0.518,0.518,0.518,1.346,0,1.854L7.41,729.979C7.154,730.234,6.819,730.362,6.484,730.362z"/>
	</g>
</g>
<path d="M11.477,102.571c0.22,0,0.424-0.085,0.576-0.239l3.132-3.132v16.258c0,0.45,0.366,0.815,0.815,0.815
	s0.814-0.366,0.814-0.815V99.2l3.131,3.131c0.154,0.155,0.359,0.24,0.578,0.24c0.449,0,0.812-0.366,0.812-0.815
	c0-0.219-0.085-0.424-0.235-0.576l-4.521-4.525c-0.308-0.307-0.844-0.307-1.153,0l-4.522,4.523c-0.155,0.153-0.24,0.358-0.24,0.577
	C10.661,102.206,11.027,102.571,11.477,102.571z"/>
<g>
	<path d="M25.248,619.671h-1.977v-4.153c0-4.008-3.268-7.271-7.271-7.271s-7.271,3.263-7.271,7.271v4.153H6.751
		c-1.31,0-2.375,1.065-2.375,2.375v14.146c0,1.308,1.065,2.374,2.375,2.374h18.497c1.311,0,2.375-1.066,2.375-2.374v-14.146
		C27.623,620.736,26.559,619.671,25.248,619.671z M16,609.732c3.191,0,5.786,2.595,5.786,5.779v4.153H10.214v-4.153
		C10.214,612.327,12.81,609.732,16,609.732z M5.862,622.046c0-0.489,0.399-0.887,0.889-0.887h18.497
		c0.488,0,0.889,0.396,0.889,0.887v14.146c0,0.483-0.398,0.889-0.889,0.889H6.751c-0.49,0-0.889-0.399-0.889-0.889V622.046z"/>
	<path d="M15.257,629.697v1.598c0,0.409,0.333,0.743,0.743,0.743s0.743-0.334,0.743-0.743v-1.599
		c0.655-0.293,1.089-0.945,1.089-1.667c0-1.009-0.822-1.83-1.832-1.83c-1.009,0-1.831,0.82-1.831,1.83
		C14.169,628.752,14.601,629.404,15.257,629.697z"/>
</g>
<g>
	<path d="M15.256,661.695v1.599c0,0.409,0.333,0.743,0.743,0.743s0.744-0.334,0.744-0.743v-1.599
		c0.655-0.293,1.089-0.944,1.089-1.666c0-1.016-0.822-1.831-1.833-1.831c-1.009,0-1.83,0.815-1.83,1.831
		C14.169,660.751,14.601,661.403,15.256,661.695z"/>
	<path d="M25.248,651.67h-1.977v-4.153c0-4.008-3.269-7.271-7.272-7.271c-4.01,0-7.271,3.263-7.271,7.271
		c0,0.41,0.333,0.743,0.743,0.743c0.41,0,0.743-0.333,0.743-0.743c0-3.188,2.596-5.779,5.785-5.779c3.19,0,5.787,2.595,5.787,5.779
		v4.153H6.751c-1.31,0-2.375,1.065-2.375,2.375v14.146c0,1.309,1.065,2.375,2.375,2.375h18.497c1.311,0,2.375-1.066,2.375-2.375
		v-14.146C27.623,652.735,26.559,651.67,25.248,651.67z M5.863,654.045c0-0.489,0.398-0.888,0.888-0.888h18.497
		c0.49,0,0.891,0.396,0.891,0.888v14.146c0,0.484-0.4,0.889-0.891,0.889H6.751c-0.49,0-0.888-0.398-0.888-0.889V654.045z"/>
</g>
<path d="M25.664,810.073c0-0.632-0.516-1.146-1.146-1.146h-2.64v-0.747c0-3.235-2.637-5.878-5.878-5.878s-5.878,2.643-5.878,5.878
	v0.747H7.483c-0.632,0-1.146,0.521-1.144,1.115l-2.842,18.012c0,0.632,0.515,1.146,1.146,1.146h22.712
	c0.633,0,1.146-0.521,1.145-1.178L25.664,810.073z M10.122,811.444c-0.571,0.262-0.946,0.835-0.946,1.468
	c0,0.893,0.727,1.619,1.62,1.619s1.62-0.729,1.62-1.619c0-0.633-0.375-1.206-0.946-1.468v-1.171h9.063v1.171
	c-0.571,0.262-0.946,0.835-0.946,1.468c0,0.893,0.728,1.619,1.62,1.619s1.62-0.729,1.62-1.619c0-0.633-0.375-1.206-0.947-1.468
	v-1.171h2.47l2.774,17.574H4.877l2.776-17.574h2.468L10.122,811.444L10.122,811.444z M16,803.648c2.499,0,4.531,2.026,4.531,4.525
	v0.747h-9.063v-0.747C11.468,805.681,13.501,803.648,16,803.648z"/>
<g>
	<path d="M25.993,356.866h-5.347v-0.854c0-1.185-0.965-2.146-2.148-2.146h-4.996c-1.185,0-2.149,0.964-2.149,2.146v0.854H6.006
		c-0.358,0-0.649,0.292-0.649,0.646c0,0.357,0.291,0.649,0.649,0.649h0.363L8.355,380c0,1.185,0.964,2.149,2.148,2.149h10.994
		c1.185,0,2.147-0.97,2.147-2.141l1.981-21.85h0.358c0.355,0,0.648-0.291,0.648-0.649C26.643,357.157,26.352,356.866,25.993,356.866
		z M13.502,355.167h4.996c0.469,0,0.85,0.381,0.85,0.85v0.854h-6.696v-0.854C12.652,355.548,13.033,355.167,13.502,355.167z
		 M21.497,380.851H10.503c-0.468,0-0.85-0.381-0.85-0.857L7.669,358.17H24.33l-1.984,21.836
		C22.346,380.469,21.965,380.851,21.497,380.851z"/>
	<path d="M16,359.864c-0.358,0-0.649,0.292-0.649,0.646v17.99c0,0.358,0.292,0.649,0.649,0.649s0.648-0.292,0.648-0.649v-17.988
		C16.648,360.155,16.358,359.864,16,359.864z"/>
	<path d="M20.529,359.896l-0.038-0.007c-0.343,0-0.628,0.271-0.648,0.612l-0.993,17.96c-0.021,0.357,0.254,0.665,0.61,0.688
		l0.038,0.001c0.343,0,0.628-0.271,0.648-0.612l0.994-17.96c0.01-0.173-0.054-0.341-0.164-0.47
		C20.861,359.982,20.702,359.906,20.529,359.896z M19.497,378.999C19.498,378.999,19.498,378.999,19.497,378.999l0.001,0.005
		L19.497,378.999z"/>
	<path d="M11.509,359.864l-0.039,0.001c-0.173,0.01-0.332,0.087-0.447,0.217c-0.116,0.13-0.174,0.297-0.164,0.47l0.994,17.99
		c0.02,0.343,0.305,0.612,0.648,0.612l0.039-0.001c0.173-0.016,0.332-0.087,0.448-0.223c0.115-0.13,0.173-0.297,0.163-0.47
		l-0.994-17.99C12.136,360.132,11.852,359.864,11.509,359.864z M12.502,378.999L12.502,378.999v0.005V378.999z"/>
</g>
<path d="M30.857,195.9H1.143c-0.686,0-1.243,0.558-1.243,1.243V220c0,0.686,0.558,1.243,1.243,1.243h29.714
	c0.686,0,1.242-0.558,1.242-1.243v-22.857C32.1,196.458,31.543,195.9,30.857,195.9z M30.758,197.243V219.9H1.243v-22.657H30.758z"/>
<path d="M26.286,204.1c1.315,0,2.385-1.07,2.385-2.386s-1.069-2.386-2.385-2.386s-2.386,1.07-2.386,2.386S24.971,204.1,26.286,204.1
	z M26.286,200.671c0.575,0,1.043,0.468,1.043,1.043c0,0.575-0.468,1.042-1.043,1.042s-1.044-0.468-1.044-1.042
	C25.242,201.139,25.711,200.671,26.286,200.671z"/>
<path d="M30.167,162.561c-0.64-0.57-1.608-1.437-11.554,7.86c-3.826,3.578-7.54,7.328-8.818,8.628
	c-0.177-0.023-0.354-0.051-0.538-0.051c-1.254,0-2.425,0.565-2.981,1.09c-0.945,0.89-1.191,2.3-1.452,3.794
	c-0.374,2.141-0.76,4.354-3.032,5.8c-0.259,0.165-0.372,0.484-0.276,0.775c0.091,0.275,0.349,0.459,0.636,0.459
	c0.016,0,0.031,0,0.047-0.001c0.409-0.029,10.02-0.77,10.987-6.227c0.021-0.123,0.051-0.248,0.08-0.378
	c0.088-0.392,0.188-0.871,0.16-1.416c3.623-3.459,17.145-16.58,17.094-19.523C30.512,162.953,30.324,162.7,30.167,162.561z
	 M11.958,184.014c-0.034,0.151-0.066,0.298-0.092,0.44c-0.542,3.054-4.931,4.33-7.637,4.829c1.29-1.607,1.627-3.538,1.912-5.172
	c0.231-1.322,0.431-2.465,1.052-3.049c0.298-0.281,1.121-0.726,2.063-0.726c0.714,0,1.334,0.259,1.845,0.77
	C12.336,182.339,12.153,183.153,11.958,184.014z M13.017,181.43c-0.214-0.401-0.523-0.826-0.968-1.271
	c-0.258-0.258-0.547-0.458-0.848-0.632c0.245-0.25,0.488-0.498,0.734-0.747l1.881,1.881C13.55,180.918,13.284,181.174,13.017,181.43
	z M14.407,180.086l-1.891-1.89c0.217-0.218,0.434-0.438,0.65-0.654l1.902,1.901C14.849,179.658,14.627,179.872,14.407,180.086z
	 M15.656,178.866l-1.905-1.904c6.765-6.721,13.511-12.758,15.384-13.297C28.549,165.529,22.438,172.192,15.656,178.866z"/>
<path d="M29.146,567.032c0-1.521-0.774-1.963-1.6-2.436c-1.363-0.773-3.236-1.845-3.236-8.854c0-3.462-2.158-6.562-5.396-7.774
	c0.011-0.09,0.021-0.187,0.021-0.287c0-1.614-1.316-2.937-2.938-2.937s-2.937,1.315-2.937,2.937c0,0.104,0.007,0.197,0.018,0.287
	c-3.233,1.214-5.392,4.312-5.392,7.774c0,7.009-1.873,8.075-3.241,8.854c-0.82,0.473-1.596,0.909-1.596,2.436
	c0,1.812,3.588,3.307,9.167,3.829c-0.021,0.162-0.031,0.313-0.031,0.472c0,2.212,1.799,4.011,4.011,4.011s4.012-1.799,4.012-4.011
	c0-0.151-0.01-0.308-0.029-0.472C25.561,570.339,29.146,568.845,29.146,567.032z M27.573,567.032c0,1.148-4.753,2.438-11.573,2.438
	c-6.82,0-11.572-1.284-11.572-2.438c0-0.737,0.412-0.979,1.095-1.376c1.49-0.868,3.741-2.186,3.741-9.908
	c0-3.715,3.021-6.736,6.736-6.736s6.736,3.021,6.736,6.736c0,7.728,2.252,9.04,3.742,9.908
	C27.161,566.055,27.573,566.295,27.573,567.032z M16,546.324c0.704,0,1.285,0.537,1.355,1.224c-0.449-0.074-0.904-0.111-1.355-0.111
	s-0.906,0.037-1.355,0.111C14.714,546.861,15.296,546.324,16,546.324z M16,573.77c-1.344,0-2.437-1.093-2.437-2.437
	c0-0.114,0.01-0.229,0.03-0.354c1.601,0.093,3.214,0.093,4.814,0c0.02,0.125,0.028,0.239,0.028,0.354
	C18.438,572.677,17.344,573.77,16,573.77z"/>
<path d="M3.836,220.75l7.411-9.53l6.261,6.26c0.309,0.308,0.842,0.307,1.146,0l3.525-3.526l5.823,6.796h2.144l-7.301-8.518
	l-0.084-0.085l-0.01,0.005c-0.312-0.277-0.812-0.257-1.104,0.034l-3.569,3.572l-6.335-6.335c-0.297-0.298-0.81-0.313-1.121-0.011
	l-0.016-0.014l-8.83,11.352H3.836z"/>
<circle stroke="#000000" stroke-width="0.3" stroke-linecap="round" cx="24.656" cy="314.665" r="2.035"/>
<circle stroke="#000000" stroke-width="0.3" stroke-linecap="round" cx="24.656" cy="314.665" r="1.018"/>
<path stroke="#000000" stroke-width="0.3" stroke-linecap="round" d="M24.656,310.085c-1.043,0-2.002,0.351-2.771,0.94l-3.193-4.201
	c0.348-0.396,0.697-0.807,1.082-1.244c0.812-0.928,1.705-1.955,2.707-3.11c3.375-3.531,4.975-6.556,4.726-8.984
	c-0.172-1.689-1.211-2.423-1.255-2.454l-0.4-0.276l-9.539,12.536l-9.525-12.536l-0.399,0.276c-0.044,0.03-1.082,0.765-1.254,2.454
	c-0.248,2.428,1.345,5.453,4.716,8.984c1,1.155,1.896,2.183,2.703,3.11c0.381,0.437,0.734,0.844,1.076,1.239l-3.2,4.206
	c-0.77-0.593-1.73-0.94-2.774-0.94c-2.529,0-4.58,2.05-4.58,4.579s2.05,4.58,4.58,4.58c1.789,0,3.333-1.027,4.087-2.521l0.005,0.003
	c1.411-2.534,2.604-4.304,4.568-6.722c1.959,2.419,3.151,4.187,4.56,6.722l0.005-0.003c0.753,1.495,2.296,2.521,4.082,2.521
	c2.521,0,4.57-2.05,4.57-4.58S27.182,310.085,24.656,310.085z M11.147,315.188l-0.012,0.021l-0.621,1.062
	c-0.588,1.156-1.777,1.957-3.164,1.957c-1.967,0-3.562-1.594-3.562-3.562c0-1.967,1.595-3.562,3.562-3.562
	c0.813,0,1.555,0.278,2.152,0.739l0,0c0.128,0.102,0.249,0.205,0.362,0.318c0.012,0.013,0.025,0.021,0.037,0.036
	c0.116,0.118,0.225,0.244,0.323,0.378c0,0,0,0.001,0,0.002l0.643-0.845c0,0-0.001-0.003-0.002-0.003l3.138-4.122
	c0.487,0.564,0.935,1.097,1.348,1.596C13.587,311.367,12.385,313.066,11.147,315.188z M24.656,318.227
	c-1.387,0-2.571-0.801-3.16-1.958l-0.107-0.159c-2.15-3.854-3.928-6.098-8.374-11.195c-0.807-0.927-1.702-1.953-2.718-3.126
	c-3.923-4.11-4.587-6.699-4.46-8.153c0.06-0.665,0.289-1.12,0.489-1.401l14.818,19.501c0,0,0,0.001-0.002,0.001l0.644,0.845
	c0,0,0-0.001,0.001-0.002c0.098-0.135,0.206-0.26,0.322-0.378c0.012-0.017,0.021-0.023,0.035-0.036
	c0.111-0.113,0.23-0.22,0.359-0.318h-0.001c0.601-0.461,1.338-0.737,2.147-0.737c1.968,0,3.56,1.595,3.56,3.562
	C28.213,316.632,26.621,318.227,24.656,318.227z M25.703,292.23c0.201,0.281,0.431,0.736,0.49,1.401
	c0.129,1.454-0.536,4.043-4.465,8.153c-1.021,1.174-1.914,2.199-2.727,3.126c-0.331,0.38-0.645,0.737-0.939,1.085l-1.416-1.862
	L25.703,292.23z"/>
<circle stroke="#000000" stroke-width="0.3" stroke-linecap="round" cx="16" cy="306.682" r="0.509"/>
<circle stroke="#000000" stroke-width="0.3" stroke-linecap="round" cx="7.35" cy="314.665" r="2.035"/>
<circle stroke="#000000" stroke-width="0.3" stroke-linecap="round" cx="7.35" cy="314.665" r="1.018"/>
<g>
	<path fill="none" stroke="#000000" stroke-width="1.4" stroke-miterlimit="10" d="M31.125,251.287c0,1.65-1.35,3-3,3H3.875
		c-1.65,0-3-1.35-3-3v-19c0-1.65,1.35-3,3-3h24.25c1.65,0,3,1.35,3,3V251.287z"/>
</g>
<path stroke="#000000" stroke-width="0.3" d="M20.086,265.691c-0.604-1.056-1.885-2.315-4.552-2.315H13.8
	c-0.75,0-1.156,0.596-1.156,1.156v6.361l0,0v0.62c-0.19-0.02-0.38-0.042-0.578-0.042c-2.236,0-4.048,1.294-4.048,2.891
	c0,1.597,1.812,2.892,4.048,2.892c2.235,0,4.048-1.294,4.048-2.892v-7.5c3.117,0.307,4.626,1.718,4.626,1.718
	S20.588,266.575,20.086,265.691z M15.534,265.689h-0.578v1.798v2.25l0,0v4.626c0,0.958-1.294,1.735-2.891,1.735
	s-2.892-0.776-2.892-1.735c0-0.958,1.295-1.734,2.892-1.734c0.654,0,1.25,0.135,1.735,0.354v-8.451h1.734
	c2.213,0,3.216,1.033,3.67,1.972C18.396,266.073,17.209,265.689,15.534,265.689z"/>
<path stroke="#000000" stroke-width="0.3" d="M24.209,258.75H3.391c-0.639,0-1.157,0.518-1.157,1.157v20.817
	c0,0.639,0.518,1.156,1.157,1.156h20.818c0.639,0,1.154-0.518,1.154-1.156v-20.817C25.363,259.268,24.848,258.75,24.209,258.75z
	 M24.209,280.724H3.391v-20.817h20.818V280.724z"/>
<path stroke="#000000" stroke-width="0.3" d="M29.991,285.35v-20.817c0-0.638-0.519-1.156-1.157-1.156H27.1
	c-0.314,0-0.578,0.258-0.578,0.578c0,0.32,0.264,0.578,0.578,0.578h1.734v20.817H8.017v-1.734c0-0.32-0.258-0.578-0.578-0.578
	c-0.319,0-0.578,0.258-0.578,0.578v1.734c0,0.639,0.518,1.157,1.156,1.157h20.817C29.473,286.506,29.991,285.988,29.991,285.35z"/>
<path d="M4.881,774.283h22.238c0.279,0,0.506-0.229,0.506-0.506c0-0.279-0.227-0.505-0.506-0.505H4.881
	c-0.279,0-0.506,0.226-0.506,0.505C4.375,774.056,4.602,774.283,4.881,774.283z"/>
<path d="M6.902,772.261h18.196c0.278,0,0.504-0.226,0.504-0.505s-0.226-0.506-0.504-0.506H6.902c-0.279,0-0.506,0.227-0.506,0.506
	S6.623,772.261,6.902,772.261z"/>
<path d="M4.243,840.868h23.514c0.296,0,0.535-0.229,0.535-0.506c0-0.279-0.239-0.505-0.535-0.505H4.243
	c-0.294,0-0.535,0.226-0.535,0.505C3.708,840.641,3.948,840.868,4.243,840.868z"/>
<path d="M6.38,838.846h19.239c0.295,0,0.533-0.226,0.533-0.505c0-0.278-0.238-0.506-0.533-0.506H6.38
	c-0.295,0-0.535,0.229-0.535,0.506C5.845,838.62,6.085,838.846,6.38,838.846z"/>
<text transform="matrix(1 0 0 1 10.251 789.7197)" font-family="'MyriadPro-Regular'" font-size="18.7111">+</text>
<path stroke="#000000" stroke-width="0.5" stroke-miterlimit="10" d="M29.932,842.293H2.072c-0.592,0-1.072,0.465-1.072,1.038
	v16.675c0,0.572,0.48,1.037,1.072,1.037h27.855c0.595,0,1.072-0.465,1.072-1.037v-16.675C31,842.758,30.521,842.293,29.932,842.293z
	 M29.932,860.004H2.072V843.33h27.855v16.674H29.932z"/>
<path stroke="#000000" stroke-width="0.5" stroke-miterlimit="10" d="M29.932,775.521H2.072C1.48,775.521,1,775.987,1,776.56v16.677
	c0,0.57,0.48,1.036,1.072,1.036h27.855c0.595,0,1.072-0.466,1.072-1.036V776.56C31,775.987,30.521,775.521,29.932,775.521z
	 M29.932,793.233H2.072V776.56h27.855v16.676L29.932,793.233L29.932,793.233z"/>
<path stroke="#000000" stroke-width="0.5" stroke-miterlimit="10" d="M29.932,106.626H2.072c-0.592,0-1.072,0.465-1.072,1.038
	v16.675c0,0.572,0.48,1.037,1.072,1.037h27.855c0.595,0,1.072-0.465,1.072-1.037v-16.675C31,107.091,30.521,106.626,29.932,106.626z
	 M29.932,124.337H2.072v-16.674h27.855v16.674H29.932z"/>
<g>
	<g>
		<path d="M29.659,330.411c-0.109,0-0.22-0.042-0.304-0.126l-6.256-6.256c-0.168-0.168-0.168-0.44,0-0.609
			c0.166-0.168,0.438-0.168,0.606,0l6.256,6.256c0.169,0.168,0.169,0.44,0,0.608C29.88,330.369,29.77,330.411,29.659,330.411z"/>
	</g>
	<g>
		<path d="M23.402,330.411c-0.11,0-0.221-0.042-0.305-0.126c-0.168-0.17-0.168-0.442,0-0.61l6.258-6.254
			c0.168-0.167,0.438-0.167,0.606,0c0.17,0.169,0.17,0.442,0,0.609l-6.256,6.255C23.622,330.369,23.514,330.411,23.402,330.411z"/>
	</g>
</g>
<g id="_x38_43-link_x40_2x.png">
	<g>
		<path d="M4.735,333.464c-2.138-2.139-2.138-5.606,0-7.745c2.139-2.139,5.607-2.139,7.746,0l5.631,5.632
			c2.139,2.139,2.139,5.606,0,7.745c-1.2,1.201-2.82,1.728-4.389,1.579c0.172,0.359,0.394,0.7,0.668,1.014
			c1.606-0.037,3.2-0.663,4.426-1.889c2.527-2.527,2.527-6.626,0-9.153l-5.632-5.632c-2.527-2.528-6.625-2.528-9.153,0
			c-2.527,2.527-2.527,6.625,0,9.153l5.633,5.633c0.264,0.264,0.551,0.49,0.846,0.699c-0.116-0.481-0.185-0.973-0.204-1.465
			L4.735,333.464z M27.969,339.801l-5.633-5.633c-0.264-0.265-0.551-0.491-0.846-0.699c0.116,0.482,0.185,0.972,0.203,1.464
			l5.572,5.572c2.138,2.138,2.138,5.605,0,7.745c-2.139,2.138-5.607,2.138-7.746,0l-5.631-5.633c-2.139-2.14-2.139-5.606,0-7.745
			c1.201-1.201,2.82-1.728,4.39-1.579c-0.172-0.36-0.394-0.701-0.668-1.014c-1.606,0.037-3.2,0.663-4.426,1.889
			c-2.527,2.527-2.527,6.625,0,9.152l5.632,5.633c2.527,2.528,6.625,2.528,9.152,0C30.496,346.426,30.496,342.328,27.969,339.801z"
			/>
	</g>
	<g>
		<path fill="none" stroke="#000000" stroke-width="0.3" stroke-miterlimit="10" d="M4.735,333.464
			c-2.138-2.139-2.138-5.606,0-7.745c2.139-2.139,5.607-2.139,7.746,0l5.631,5.632c2.139,2.139,2.139,5.606,0,7.745
			c-1.2,1.201-2.82,1.728-4.389,1.579c0.172,0.359,0.394,0.7,0.668,1.014c1.606-0.037,3.2-0.663,4.426-1.889
			c2.527-2.527,2.527-6.626,0-9.153l-5.632-5.632c-2.527-2.528-6.625-2.528-9.153,0c-2.527,2.527-2.527,6.625,0,9.153l5.633,5.633
			c0.264,0.264,0.551,0.49,0.846,0.699c-0.116-0.481-0.185-0.973-0.204-1.465L4.735,333.464z M27.969,339.801l-5.633-5.633
			c-0.264-0.265-0.551-0.491-0.846-0.699c0.116,0.482,0.185,0.972,0.203,1.464l5.572,5.572c2.138,2.138,2.138,5.605,0,7.745
			c-2.139,2.138-5.607,2.138-7.746,0l-5.631-5.633c-2.139-2.14-2.139-5.606,0-7.745c1.201-1.201,2.82-1.728,4.39-1.579
			c-0.172-0.36-0.394-0.701-0.668-1.014c-1.606,0.037-3.2,0.663-4.426,1.889c-2.527,2.527-2.527,6.625,0,9.152l5.632,5.633
			c2.527,2.528,6.625,2.528,9.152,0C30.496,346.426,30.496,342.328,27.969,339.801z"/>
	</g>
</g>
</svg>
